<svg width="136" height="122" viewBox="0 0 136 122" fill="none" xmlns="http://www.w3.org/2000/svg">
<path opacity="0.15" d="M74.9502 111.694C108.64 111.694 135.95 86.6901 135.95 55.8468C135.95 25.0034 108.64 0 74.9502 0C41.2608 0 13.9502 25.0034 13.9502 55.8468C13.9502 86.6901 41.2608 111.694 74.9502 111.694Z" fill="#FF4A4A"/>
<path d="M45.4157 34.736C44.4397 34.4852 44.4427 35.2469 43.9427 35.2753C43.1557 35.322 43.1137 36.0077 43.8857 35.9875L43.3947 36.4114C43.0614 36.9455 42.8837 37.0209 42.8617 36.6376C43.0347 36.6238 42.4317 37.2784 42.5357 37.1814C42.2217 36.9543 41.9127 36.9699 41.9197 37.3801C41.9297 38.1903 40.1047 38.0456 40.7337 38.6068C40.8007 38.475 40.9257 38.4384 41.1147 38.4942C40.6147 38.9639 40.6757 38.9849 40.0687 38.9447C39.5327 38.9108 39.9107 39.2633 39.6047 39.4162C39.2427 39.5947 39.4157 40.0076 39.0377 40.3234C38.4237 40.838 38.7897 40.5239 38.0927 41.0632C38.091 40.9703 38.1044 40.8777 38.1327 40.7885C37.9377 40.9478 37.6687 40.7711 37.8147 41.1547C37.1827 40.8004 37.0547 41.1492 37.2867 41.672C37.1047 41.8121 36.9247 41.9467 36.7397 42.0831C36.6397 42.1536 35.6397 42.4191 35.6027 42.4767C35.7317 42.2497 36.2337 42.0364 35.7737 41.8203C35.4737 41.6747 35.3597 42.1939 35.3337 42.3486C35.2627 42.767 35.5337 42.8686 34.9677 43.0215C34.6597 43.0986 34.3376 43.1164 34.0217 43.0737C34.0397 43.1103 33.7707 42.4117 33.6097 42.4813C33.6917 42.6571 33.7647 42.8356 33.8357 43.0151C33.7467 42.9061 33.7067 42.9089 33.7097 43.0242C33.6667 42.8503 33.6247 42.6745 33.5817 42.5015C33.3677 42.8054 33.5197 43.4838 33.5507 43.8244C33.5537 43.7486 33.5273 43.6743 33.476 43.6148C33.4247 43.5552 33.3519 43.5143 33.2707 43.4994C33.1247 43.5671 33.0937 43.8546 33.0417 43.9764C32.9127 44.2812 32.2177 43.8976 31.9567 44.1595C32.0397 43.579 31.6567 44.0679 31.4937 44.2071C31.2537 44.475 30.9096 44.6473 30.5337 44.6877C30.5087 44.576 30.3407 43.6385 29.9597 43.7933C29.5387 43.969 29.5757 44.6026 29.5657 43.7017C29.4537 43.8921 29.0877 44.631 28.6897 44.4817C28.762 44.2901 28.811 44.0918 28.8357 43.8903C28.8357 43.8903 28.5147 44.3398 28.4697 44.4241C27.4997 44.1842 28.1337 44.8406 27.5427 45.1885C27.5517 45.1382 27.6797 44.5541 27.6027 44.5303C27.5257 44.5065 27.2767 45.3542 27.3107 45.2453C27.3357 45.0786 27.3557 44.9129 27.3707 44.7454C27.4507 45.3478 27.1137 45.7433 27.2707 46.3842C27.1157 46.2157 26.3167 46.9463 27.3797 46.885C27.3457 46.9362 27.0597 47.513 27.3637 47.5378C27.7017 47.568 27.6637 46.7641 27.5307 46.9307C27.6217 46.7806 29.4927 47.9781 30.0997 47.7941C31.5849 47.8862 33.0761 47.7292 34.4997 47.3308C37.2816 46.588 39.8657 45.3265 42.0897 43.6257C44.3507 41.9778 47.1477 39.9252 48.7517 37.7023C50.1347 35.7834 47.4587 33.5339 45.4157 34.736ZM30.2727 44.4405C30.2857 44.5321 30.2977 44.6136 30.3097 44.7006C30.1537 44.7152 30.0867 44.4021 30.2727 44.4405ZM28.6497 44.4708L28.5497 44.4424C28.5977 44.3572 28.8757 43.7722 28.6497 44.4735V44.4708ZM29.7897 44.5714C29.8147 44.7088 29.7597 44.7637 29.6287 44.7308C29.6437 44.7005 29.7747 44.262 29.7897 44.5742V44.5714Z" fill="#FF4A4A"/>
<path d="M94.1856 44.2866C94.1146 44.0825 94.0386 43.882 93.9636 43.6787C94.1586 43.8078 94.6126 42.9463 93.7416 43.221C93.7416 43.221 93.8666 42.5334 93.6286 42.5847C93.3506 42.6433 93.5366 43.3885 93.6106 43.2127C93.3876 44.0367 92.5636 43.3958 92.2816 42.9866C91.3816 41.6463 90.4816 43.6174 89.3816 42.8548C89.443 42.8133 89.4908 42.7573 89.5199 42.6927C89.549 42.6282 89.5582 42.5576 89.5466 42.4886C89.0605 42.5366 88.5713 42.5531 88.0826 42.538C88.2395 42.3773 88.3495 42.1831 88.4026 41.9731C88.3576 42.1379 87.6956 41.6555 87.5446 41.8312C87.0716 42.3851 88.3316 41.8761 87.3446 42.5188C87.2186 42.4931 87.2316 42.4327 87.3846 42.3421C86.7846 42.1516 86.9176 41.9319 86.5396 41.4961C86.1146 41.0027 85.3446 41.2746 84.7806 41.3011C85.1271 41.2467 85.4828 41.268 85.8186 41.3634C84.8186 41.638 84.0186 41.0704 83.1766 40.6511C82.8136 40.468 82.7556 39.8995 82.4766 39.97C82.5493 39.9436 82.6078 39.8922 82.6397 39.8269C82.6717 39.7616 82.6745 39.6874 82.6476 39.6202C82.5126 39.5781 82.3476 39.7017 82.2266 39.7328C81.3966 39.9562 80.8576 39.3914 80.1586 38.9089C80.2706 38.5985 80.2016 38.3303 79.8376 38.2332C79.2428 38.1398 78.7022 37.8591 78.3096 37.4395C78.3882 37.4023 78.4562 37.3488 78.5083 37.2833C78.5604 37.2178 78.5951 37.1422 78.6096 37.0623C78.4332 37.0801 78.2673 37.1476 78.1346 37.2554C77.9786 37.0989 77.8266 36.935 77.6806 36.7693C77.9956 36.6109 77.9036 36.079 77.4646 36.5395C77.3266 36.3747 77.1646 35.9133 77.1876 36.0616C76.8017 35.3411 76.2153 34.7263 75.4876 34.2791C75.1241 34.1089 74.7168 34.033 74.3096 34.0594C73.7536 34.0905 73.6446 33.9083 73.1096 33.7462C73.7356 34.3917 71.9026 35.1754 71.7986 36.1367C71.6366 37.6015 73.3846 39.2494 74.3986 40.2345C76.7656 42.4156 79.6382 44.0811 82.8036 45.1079C85.1653 45.9345 87.6474 46.437 90.1696 46.5992C91.4773 46.7361 92.8017 46.6318 94.0646 46.2926C95.5036 45.833 95.9336 44.8176 94.1856 44.2866ZM93.8006 44.1951C93.7556 44.186 93.7086 44.1777 93.6636 44.1695C93.7286 44.0092 93.7726 44.012 93.8006 44.1914V44.1951ZM92.2386 43.3373C92.1676 43.3373 91.6156 43.1477 91.3536 43.1249C91.6576 43.0315 92.2906 42.8108 92.2386 43.3336V43.3373ZM91.1166 43.4609C91.1936 43.3803 91.0426 43.7456 90.9826 43.6504L91.1166 43.4609ZM91.6016 43.7785C91.5246 43.7556 91.5746 43.9076 91.6016 43.7785C91.5956 43.7913 91.5856 43.7694 91.5986 43.7749L91.6016 43.7785Z" fill="#FF4A4A"/>
<path d="M107.812 32.2376C100.451 21.4848 88.636 12.8075 75.096 9.65719C71.7949 8.88119 68.404 8.47115 64.996 8.43589C63.1848 8.42197 61.3746 8.52077 59.578 8.7316C58.743 8.8323 58.064 8.32969 57.162 8.37181C56.35 8.41117 55.562 8.6254 54.753 8.67942C54.513 9.02823 51.653 8.84055 51.315 8.84238C50.25 8.85153 49.188 8.8149 48.124 8.87899C47.892 8.87899 47.06 9.58028 47.37 9.79451C46.615 10.0489 45.9234 10.4393 45.336 10.9426C44.611 11.4287 43.762 11.7153 43.064 12.238C42.592 12.5933 38.654 14.3666 39.397 12.6876C38.3955 13.013 37.5049 13.5734 36.814 14.3126C36.029 15.3627 33.914 14.6257 32.686 15.0212C32.17 15.1769 29.914 16.4073 30.843 17.0097C31.151 17.2084 33.131 15.9038 33.775 15.8397C31.8483 16.7327 30.0622 17.8598 28.465 19.1905C28.3982 19.2623 28.3143 19.3191 28.2197 19.3564C28.1251 19.3938 28.0223 19.4107 27.9194 19.4058C27.8166 19.4009 27.7163 19.3744 27.6263 19.3284C27.5364 19.2823 27.4593 19.2179 27.401 19.1402C27.054 18.8133 26.474 19.2903 26.218 19.4844C25.477 20.0538 24.567 20.3871 24.611 21.4024C24.022 20.648 23.242 21.6642 22.677 22.0918C22.329 22.3545 21.926 22.555 21.564 22.8031C20.658 23.4239 20.703 23.6656 21.627 24.1664C21.007 24.6827 21.091 24.3376 20.74 23.8084C20.3344 24.731 19.7777 25.5917 19.089 26.3609C18.809 26.6154 18.531 26.8745 18.257 27.1336C18.0775 27.0867 17.9215 26.9837 17.8161 26.8426C17.7107 26.7015 17.6626 26.5311 17.68 26.3609C16.4623 27.4292 15.3493 28.5933 14.354 29.8398C13.49 31.1216 13.121 32.5159 12.136 33.7409C11.217 34.8853 10.215 35.8978 9.21702 36.9827C8.67341 37.5524 8.18617 38.1652 7.76102 38.8138C7.576 39.3123 7.35172 39.7979 7.09 40.2667C6.764 40.6329 6.32702 40.6457 6.05802 41.1236C5.79802 41.5814 5.576 42.0684 5.322 42.5344C4.7078 43.8573 4.28005 45.2463 4.04902 46.668C3.70091 48.037 3.10609 49.3433 2.28901 50.5333C1.85201 51.1742 0.824015 52.4468 1.90201 52.9137C1.34001 52.8029 0.602022 54.7566 0.472022 55.1457C0.298022 55.6658 1.40003 59.3571 0.283027 59.0724C0.113027 60.2781 0.0570066 61.4958 6.55849e-06 62.7107C-0.00087205 63.0782 0.0865367 63.4414 0.256019 63.7745C0.241019 64.2836 -0.0189793 64.6901 0.00202072 65.1478C0.0819327 68.2079 0.449939 71.256 1.102 74.2582C2.52288 80.5997 5.05961 86.6879 8.61301 92.2848C8.54901 93.0474 9.67702 94.0471 10.092 94.655C10.479 95.1586 10.918 95.6328 11.258 96.0878C11.091 96.8733 13.51 99.0907 14.07 99.7554C15.379 101.294 16.8052 102.745 18.338 104.099C19.538 105.163 20.821 106.159 22.038 107.204C23.386 108.187 23.761 109.732 24.938 110.8C25.43 111.251 26.278 113.101 27.048 112.051C27.256 112.162 31.322 114.142 31.157 113.381C31.084 113.042 28.97 112.136 28.622 111.851C29.622 112.466 30.648 113.041 31.688 113.603C32.531 114.055 32.924 114.859 33.841 115.265C34.7414 115.672 35.7135 115.928 36.712 116.022C38.096 116.611 39.504 117.143 40.898 117.701C44.6874 119.093 48.6556 120.035 52.706 120.506C60.8278 121.704 69.1329 121.349 77.097 119.461C85.3051 117.475 92.8898 113.753 99.242 108.596C105.594 103.439 110.536 96.9894 113.672 89.7662C122.018 71.1307 119.43 49.2177 107.812 32.2376ZM114.093 72.6972C114.419 72.3878 114.721 71.9492 115.193 71.8146C114.936 73.8864 114.486 76.7163 113.22 78.5675C112.804 79.1708 112.711 78.4045 112.499 79.3713C112.399 79.8218 112.27 80.2631 112.134 80.7062C111.78 81.8963 111.427 82.0264 112.885 82.3642C112.698 82.9593 112.9 83.2348 112.185 82.9904C112.613 84.1247 111.917 85.2792 111.502 86.344C110.182 83.7723 106.292 83.6578 103.922 82.3285C100.222 80.2502 102.973 75.712 101.463 72.5782C100.509 70.5988 98.302 70.0312 96.784 68.5426C96.1519 67.8884 95.6825 67.1164 95.408 66.2799C95.1335 65.4435 95.0605 64.5624 95.194 63.6976C97.286 63.6976 98.149 61.8272 97.394 60.2534C97.257 59.9678 95.961 58.6568 95.649 59.1695C95.341 59.12 95.268 58.9095 94.999 58.7758C94.862 58.7062 94.66 59.1191 94.309 59.1164C94.377 59.001 94.553 58.405 94.709 58.3629C94.4845 58.473 94.3054 58.6472 94.199 58.8591C93.971 59.3168 93.412 59.11 92.922 59.1017C92.2025 58.9404 91.4525 58.9301 90.728 59.0715C88.663 59.0431 86.646 59.0468 84.608 59.1695C84.803 59.0852 84.331 58.567 83.808 59.2262C83.246 59.2674 82.802 59.4167 82.294 59.1612C82.294 59.1914 82.394 58.4581 82.194 58.4627C82.176 58.6559 82.158 58.8472 82.133 59.0358C82.1 58.9067 82.056 58.8939 82.004 59.0001C82.047 58.8234 82.098 58.6476 82.153 58.4727C81.796 58.6458 81.791 59.4249 81.453 59.4725C80.8615 59.4163 80.2644 59.4338 79.678 59.5247C79.968 58.9415 79.309 59.4276 79.135 59.5247C78.935 59.6382 78.771 59.9293 78.535 59.8295C78.206 59.6904 78.035 59.7041 77.995 60.1143C77.941 59.8579 77.808 59.0331 77.343 59.0395C76.706 59.0477 76.824 60.0227 76.629 59.0395C76.461 59.3041 76.159 60.0566 75.674 59.9944C75.6929 59.792 75.6757 59.5883 75.623 59.391C75.509 59.5924 75.4291 59.8085 75.386 60.0319C74.443 60.1655 74.697 60.5968 74.876 61.3557C74.815 61.1607 74.689 60.5647 74.476 60.4612C74.391 60.42 74.643 61.4363 74.588 61.2156C74.518 61.0545 74.441 60.8971 74.36 60.7405C74.56 61.266 74.8 61.3328 74.46 61.8098C74.3276 62.0017 74.2613 62.2256 74.2698 62.4524C74.2784 62.6793 74.3614 62.8984 74.508 63.0815C75.372 64.1618 78.254 64.0171 79.539 64.0034C79.521 64.0199 78.803 64.6351 79.285 64.626C79.258 64.6873 79.679 66.3151 79.016 65.7575C78.916 66.0835 79.27 66.2153 78.964 66.3984C78.817 66.49 78.071 67.0393 78.732 67.0603C78.832 67.0603 78.932 66.6841 78.955 66.6667C78.803 67.0072 78.431 68.0582 78.623 68.1525C78.312 68.1077 78.088 68.8291 79.023 68.733C79.088 69.2722 77.953 68.4236 78.623 69.1148C78.755 69.2548 79.051 69.7428 78.476 69.492C78.64 70.153 79.212 70.4075 79.392 71.0007C79.5191 71.4379 79.743 71.8465 80.05 72.201C80.33 72.4546 81.416 73.3655 81.55 73.2456C81.202 73.6338 82.231 73.8187 82.1 73.6054C82.052 73.5276 81.678 73.1577 81.606 73.1971C81.941 72.927 82.576 74.1877 82.647 74.238C82.828 74.3643 83.92 74.953 83.913 74.9283C83.9576 75.163 84.0928 75.3752 84.294 75.5262C84.3587 75.4652 84.4073 75.3915 84.4363 75.3108C84.4652 75.2301 84.4737 75.1443 84.461 75.0602C84.977 75.5564 84.91 75.8841 85.139 76.5158C85.4633 77.3514 85.47 78.2627 85.158 79.1022C85.096 79.3475 85.015 80.1559 84.712 80.2438C84.791 80.2209 84.285 80.4681 84.298 80.5038C84.311 80.5395 84.517 81.1987 84.498 81.2179C84.5096 81.1371 84.5441 81.0604 84.598 80.9955C84.458 81.4532 84.03 81.4276 84.085 81.9558C84.115 82.2525 84.02 82.2845 83.857 82.5171C83.694 82.7496 83.97 82.8714 84.137 82.9437C84.0788 83.2019 84.0623 83.4666 84.088 83.7292C83.741 83.5232 83.674 84.1284 83.822 84.1449C84.096 83.721 84.486 85.1245 84.753 85.4495C84.6541 85.5327 84.5232 85.5768 84.389 85.5722C84.518 85.7603 84.6618 85.9396 84.819 86.1087C85.265 85.3433 85.563 86.5408 85.774 86.6507C85.967 86.7532 87.449 87.0168 87.104 87.4975C87.346 87.5387 88.489 87.8774 88.404 87.9919C88.8026 88.0938 89.1939 88.218 89.576 88.3636C89.5259 88.3989 89.4815 88.4405 89.444 88.4872C89.524 88.5265 89.576 88.4963 89.599 88.3956C89.478 88.8461 90.199 88.315 90.199 88.7792C90.8434 88.9347 91.4375 89.2299 91.931 89.6398C93.472 91.0049 93.648 93.0895 93.687 94.9407C93.5872 97.0513 94.0988 99.1486 95.17 101.02C95.227 100.997 95.783 102.593 96.122 102.673C96.283 102.71 97.336 103.538 97.163 103.174C97.413 103.362 98.001 103.564 97.987 103.928C98.003 103.538 98.665 104.065 98.82 104.133C97.726 104.948 96.972 106.021 95.961 106.908C94.7541 107.786 93.4731 108.575 92.13 109.268C92.3172 109.453 92.4934 109.648 92.658 109.851C92.206 110.137 91.819 110.583 91.49 110.32C91.545 111.467 87.19 111.981 86.273 112.302C85.324 112.67 84.3982 113.087 83.5 113.55C83.137 113.721 82.536 113.838 82.6 114.33C82.676 114.918 82.542 114.765 81.945 114.97C81.698 114.295 81.823 114.183 81.057 114.359C80.328 114.527 80.346 114.72 80.016 115.294C79.8473 115.564 79.577 115.768 79.2555 115.869C78.9341 115.971 78.5834 115.961 78.269 115.843C77.869 115.715 77.808 115.339 77.308 115.634C77.5721 115.798 77.8265 115.974 78.07 116.162C77.2806 116.452 76.4509 116.639 75.605 116.719C75.405 116.002 74.75 116.272 74.239 116.497C74.0605 116.599 73.8673 116.679 73.665 116.734C73.254 116.789 73.344 116.326 73.034 116.373C72.567 116.438 72.103 116.505 71.634 116.572C71.924 116.736 72.217 116.89 72.516 117.039C71.933 117.276 72.894 117.313 71.833 117.477C71.5402 117.292 71.1907 117.198 70.8352 117.207C70.4797 117.217 70.1367 117.329 69.856 117.529C68.605 118.23 66.468 118.094 65.012 118.153C65.047 117.956 65.0937 117.761 65.152 117.569C63.913 117.714 62.775 117.164 61.552 117.161C61.8321 117.444 61.9902 117.81 61.997 118.192C59.9292 118.171 57.8645 118.041 55.813 117.803C55.843 117.746 55.857 117.682 55.8539 117.619C55.8508 117.555 55.8307 117.493 55.7954 117.438C55.76 117.383 55.7105 117.337 55.6512 117.304C55.5918 117.271 55.5245 117.251 55.455 117.247C54.741 117.116 55.062 117.903 54.272 117.389C53.567 116.931 53.293 116.509 52.35 116.316C51.893 116.218 50.687 115.786 50.404 116.207C49.77 117.16 47.726 116.171 47.104 115.718C46.891 116.416 46.316 116.093 46.504 115.352C45.6986 115.073 44.8712 114.851 44.029 114.688C43.574 114.537 43.029 113.813 42.482 114.004C42.2575 114.127 42.0764 114.306 41.96 114.521C41.468 114.338 40.968 114.169 40.478 113.979C39.895 113.704 39.278 113.485 38.678 113.231C37.778 112.846 37.678 112.148 36.942 111.651C36.3197 111.334 35.6682 111.067 34.995 110.854C34.736 110.751 32.731 111.105 33.812 110.345C32.866 109.898 31.89 109.498 30.962 109.016C30.0555 108.608 29.2412 108.047 28.562 107.362C27.107 106.034 25.374 105.469 23.932 104.296C24.081 104.19 24.332 104.14 24.169 103.95C24.169 103.95 24.531 103.606 24.557 103.584C24.849 104.013 25.021 102.71 25.057 102.699C24.957 102.73 24.887 102.828 24.819 102.897L25.447 101.902C25.98 102.543 25.64 101.999 26.167 101.571C26.524 101.296 25.957 101.296 26.067 101.108C26.123 101.005 26.458 101.361 26.467 101.375C27.037 101.145 26.582 99.825 27.102 99.9101C27.55 99.9724 27.556 99.4835 27.519 99.2308C27.59 99.2757 27.656 99.3224 27.724 99.3672C27.938 98.9561 28.434 98.2338 28.173 97.9463C28.31 98.0992 28.564 97.6525 28.534 97.5106C28.626 97.2487 28.091 97.4355 28.034 97.1608C28.3483 97.0383 28.6199 96.8391 28.819 96.5849C28.559 96.5511 28.438 96.3973 28.261 96.3368C29.118 96.5511 28.654 96.0512 28.985 95.6694C28.7764 95.6805 28.5707 95.7203 28.375 95.7875C28.3629 95.6883 28.3795 95.5879 28.423 95.4964C28.594 95.5779 28.84 95.5248 29.008 95.6099C29.047 95.381 29.079 95.1522 29.099 94.9205C29.011 94.9591 28.9114 94.9693 28.8163 94.9495C28.7212 94.9297 28.6362 94.8811 28.575 94.8116C28.7502 94.7763 28.9319 94.7785 29.106 94.818C29.1195 94.5946 29.1152 94.3706 29.093 94.1478C28.776 94.2824 28.528 94.3593 28.493 93.9766C28.593 94.1506 28.783 94.1753 29.084 94.0471C29.075 93.6535 29.106 93.2003 28.575 93.3998C28.6338 93.3575 28.6788 93.3012 28.7051 93.237C28.7313 93.1728 28.7378 93.1033 28.7239 93.036C28.71 92.9686 28.6761 92.9061 28.6261 92.8552C28.576 92.8042 28.5117 92.7669 28.44 92.7471C27.887 92.6418 29.197 92.066 28.468 91.8957C28.4012 91.9944 28.3061 92.0746 28.193 92.1273C28.111 91.7528 28.293 91.1019 28.206 90.8456C28.1541 90.7307 28.1123 90.6122 28.081 90.4913C27.661 90.6048 27.781 89.4054 27.775 89.0832C27.768 87.7099 28.193 84.6173 29.855 84.2309L29.703 84.1549C29.8731 84.0051 30.0535 83.8654 30.243 83.7365C30.667 83.4536 30.615 83.8482 31.137 83.6139C30.518 83.2476 31.885 83.0298 31.928 82.9373C32.819 83.3282 32.428 82.4521 33.084 82.5354C33.0781 82.5064 33.0643 82.4792 33.044 82.4563C33.0236 82.4334 32.9973 82.4155 32.9675 82.4043C32.9377 82.3931 32.9052 82.3889 32.8732 82.3921C32.8411 82.3954 32.8105 82.4059 32.784 82.4228C32.884 82.3587 34.153 82.5372 33.669 81.8982C34.545 81.8139 35.169 80.1981 34.759 80.0891C35.739 79.559 34.508 79.1736 34.478 78.6957C34.6519 78.7649 34.8377 78.8058 35.027 78.8165C34.951 78.367 33.572 77.7646 34.727 77.479C34.702 77.5293 34.675 77.5843 34.65 77.6374C35.318 77.5376 33.122 76.9159 34.659 77.1512C33.954 76.8692 33.786 76.2622 33.659 75.4621C33.4777 74.821 33.3414 74.1699 33.251 73.5129C32.964 73.4745 33.685 72.7448 33.623 72.7924C33.663 72.7595 33.474 72.4372 33.895 72.3264C34.12 72.2669 34.325 71.9474 34.417 71.7771C34.502 71.9034 35.387 71.193 35.158 70.77C35.464 70.9458 35.585 70.6199 35.573 70.4038C36.2209 70.1848 36.8265 69.8727 37.367 69.4791C37.31 69.4425 37.001 69.3794 37.167 69.2283C37.337 69.1496 37.423 69.2137 37.43 69.4187C37.8693 69.0385 38.2709 68.6234 38.63 68.1782C38.2858 68.12 37.9604 67.9913 37.678 67.8019C37.778 67.6545 38.578 68.0811 38.67 68.137C38.9995 67.6598 39.1694 67.1048 39.159 66.5403C38.859 66.5742 38.559 66.5989 38.251 66.6071C38.227 66.2757 38.958 66.424 39.159 66.4735C39.189 66.0798 39.28 65.2833 38.692 65.4234C38.7069 65.3967 38.7274 65.3731 38.7524 65.3538C38.7773 65.3344 38.8062 65.3198 38.8374 65.3108C38.8685 65.3018 38.9014 65.2985 38.9339 65.3012C38.9665 65.3038 38.9981 65.3124 39.027 65.3263C39.006 65.2348 38.985 65.1496 38.966 65.0608C38.7616 65.0942 38.564 65.1559 38.38 65.2439C38.37 64.7193 39.069 65.3666 38.861 64.6946C38.767 64.7386 38.672 64.7862 38.577 64.8338C38.355 64.7422 38.819 64.6937 38.861 64.6946C38.744 64.3284 38.641 63.9485 38.561 63.5722C40.7248 63.5841 42.8868 63.4565 45.031 63.1904C47.176 62.8837 46.086 60.7185 47.131 60.1289C45.856 60.193 47.031 58.6128 45.531 58.4087C44.988 58.3336 45.274 58.6833 44.722 58.2347C44.622 58.1542 44.322 57.8832 44.158 58.0516C43.713 58.524 44.699 58.7437 43.506 58.4764C43.661 58.3208 43.893 57.6607 44.12 57.6085C43.8414 57.7102 43.6086 57.8951 43.459 58.1331C43.117 58.6641 41.91 58.1889 41.259 58.1441C41.359 58.0123 41.351 57.5517 41.179 57.4629C40.938 57.3338 40.951 57.9903 41.127 58.1313C38.019 57.9417 35.005 58.503 31.996 58.7978C32.387 58.6751 31.74 58.1743 31.147 58.8792C30.5783 59.0171 29.9791 59.0092 29.415 58.8563C29.415 58.8728 29.521 58.1505 29.299 58.1633C29.283 58.3556 29.262 58.5487 29.237 58.7382C29.197 58.6101 29.145 58.5991 29.087 58.7071C29.136 58.524 29.187 58.3501 29.252 58.1743C29.0579 58.3315 28.9039 58.5259 28.801 58.7438C28.257 59.6831 28.77 58.8573 28.28 59.0092C27.733 59.1795 26.914 59.1008 26.419 59.294C26.8 58.6687 25.619 59.3517 25.479 59.4386C25.141 59.64 25.265 59.5723 24.857 59.4688C24.164 59.2958 25.216 59.8149 24.463 59.8149C24.412 59.5073 24.286 58.6412 23.728 58.7392C23.128 58.8472 23.128 59.5631 23.035 58.6833C22.795 58.9662 22.389 59.6464 21.867 59.5384C21.9198 59.3411 21.932 59.1365 21.903 58.9351C21.869 58.8573 21.564 59.4688 21.546 59.5466C20.539 59.5796 20.674 59.9706 20.732 60.8119C20.699 60.6215 20.655 59.9944 20.458 59.8845C20.366 59.8314 20.449 60.8595 20.433 60.6462C20.384 60.4805 20.333 60.3129 20.271 60.1463C20.943 60.7945 20.28 61.6551 20.458 62.2959C20.758 63.3845 23.38 63.8349 24.358 63.9695C23.658 66.7765 19.658 66.8076 18.444 69.2429C17.23 71.6782 19.703 74.3854 18.432 76.7667C17.001 79.4501 11.565 78.7332 11.276 82.3513C11.042 85.2563 13.783 88.7856 12.2 91.5651C10.138 88.5155 8.02102 85.1647 7.11802 81.661C6.15202 77.9221 4.31102 73.9762 3.73902 70.3947C3.62102 69.6622 3.19402 68.4867 3.73902 67.9759C4.02902 67.7012 3.96801 66.8864 3.88901 66.5467C3.73901 65.8985 2.813 66.3032 3.602 65.373C4.532 64.279 3.22602 64.2662 3.23502 63.4294C3.24502 62.6777 3.05401 61.4152 3.60401 60.9099C4.0261 60.2831 4.23755 59.5566 4.21201 58.8206C4.42503 57.6243 4.5294 56.4138 4.52402 55.2016C4.68059 55.2944 4.85101 55.3659 5.03001 55.414C5.16501 54.7603 4.645 54.7603 4.753 54.2696C4.826 53.9601 4.914 53.9254 5.266 53.8933C5.33133 53.6173 5.3602 53.3352 5.352 53.0529C5.53915 51.0106 6.04636 49.0037 6.85801 47.0937C9.00878 42.341 11.9034 37.8999 15.451 33.9103C14.746 33.8517 15.503 33.4168 15.751 33.1256C15.946 33.8819 16.697 32.5617 17.051 32.19C17.731 31.4722 18.429 30.7654 19.168 30.1017C20.6488 28.7756 22.2057 27.5226 23.832 26.348C23.4799 26.2689 23.1365 26.1605 22.806 26.024C23.047 25.8235 23.288 25.6303 23.53 25.4353C23.7537 25.6503 23.9484 25.8892 24.11 26.1466C27.01 24.2359 29.722 22.1019 32.71 20.3102L31.874 19.7764C32.128 19.6336 32.386 19.4963 32.646 19.3581C32.784 19.6016 32.923 19.8469 33.063 20.0905C35.0586 18.7934 37.1655 17.6462 39.363 16.66C39.3003 16.5538 39.238 16.4461 39.176 16.3368L39.863 16.0549C39.887 16.0935 39.902 16.1363 39.9071 16.1805C39.9123 16.2247 39.9074 16.2694 39.8929 16.3118C39.8784 16.3542 39.8544 16.3935 39.8226 16.4271C39.7908 16.4607 39.7518 16.4879 39.708 16.5071C40.114 16.324 41.562 15.9175 41.19 15.5687C41.416 15.4872 41.932 15.0945 41.845 15.5358C44.4143 14.4859 47.0822 13.6512 49.816 13.0419C50.7712 12.7518 51.7935 12.6997 52.778 12.8908C53.9035 13.0563 55.0466 13.0987 56.183 13.0171C58.261 13.0767 60.343 13.0501 62.421 13.1298C63.373 13.1655 66.186 13.7807 66.371 12.8414C66.657 12.8221 66.64 13.1041 67.271 13.0245C68.0791 12.9382 68.8964 12.9564 69.699 13.0785C69.5709 13.2461 69.4569 13.4224 69.358 13.6058C69.7314 13.637 70.1017 13.6846 70.469 13.7486C70.4168 13.5732 70.4294 13.3868 70.505 13.2186C72.1655 13.7528 73.9247 13.9817 75.682 13.8924C76.5755 13.7672 77.4892 13.8575 78.333 14.1542C79.361 14.4472 80.3777 14.774 81.383 15.1348C81.0734 15.2588 80.7529 15.3586 80.425 15.4332C81.9356 15.7777 83.3899 16.3035 84.75 16.9969C85.4428 17.3993 86.0921 17.8613 86.689 18.3766C87.454 18.0553 87.644 17.9353 88.352 18.3318C88.176 18.6778 87.674 18.8014 87.352 18.9845C87.978 19.5893 88.7101 20.094 89.518 20.4777C90.1022 20.7381 90.7073 20.9573 91.328 21.1332C92.839 21.7695 94.107 22.7812 95.645 23.3726C96.545 24.1206 96.245 24.1902 96.237 25.1899C96.237 25.8912 96.95 25.958 97.506 26.0926C97.574 26.1119 97.506 26.7957 97.762 27.064C98.094 27.4165 98.423 27.768 98.753 28.1168C99.167 27.476 99.564 28.0253 100.001 28.267C99.726 28.364 99.449 28.4602 99.171 28.5545C101.361 30.9022 103.344 33.4051 105.102 36.0397C105.568 35.6433 105.928 35.7578 105.602 36.308C105.293 36.8326 106.228 37.7884 106.544 38.3221C106.71 38.681 106.896 39.0315 107.102 39.3723C107.571 39.9976 108.158 38.7936 108.353 38.6343C108.634 39.126 108.903 39.6222 109.168 40.1193C109.047 40.2615 108.973 40.4324 108.954 40.6119C108.935 40.7914 108.973 40.9721 109.062 41.1328C109.434 42.1572 109.247 43.2769 109.681 44.2895C109.836 43.0306 111.686 43.6331 110.881 44.9075C110.36 45.7315 110.29 46.2194 111.113 46.863C111.98 47.5442 111.888 48.6474 111.885 49.5885C112.254 49.304 112.589 48.9845 112.885 48.6355C113.013 49.0209 113.139 49.4063 113.26 49.7918L111.96 49.9813C112.426 51.2859 112.66 52.6482 112.989 53.984C113.422 53.8244 113.874 53.7116 114.335 53.648C114.493 54.33 113.994 54.9297 113.14 54.5562C113.403 55.8159 113.567 57.0922 113.796 58.3574C114.067 58.1624 114.396 57.7293 114.79 57.7632C115.39 57.8246 115.238 58.8389 115.29 59.3013C114.799 59.2575 114.322 59.1296 113.883 58.9241C113.962 60.4373 114.142 61.9446 114.422 63.4376C114.814 63.4015 115.198 63.3063 115.556 63.1556C115.296 63.4623 115.421 63.845 115.218 64.1627C115.015 64.4804 114.618 64.3861 114.666 64.8548C114.657 65.7857 114.934 66.7001 115.466 67.4934C115.616 67.6408 115.484 68.3787 115.466 68.5828C115.406 69.5038 115.234 68.8648 114.636 69.3061C114.283 69.8018 114.052 70.3616 113.958 70.9471C113.864 71.5325 113.91 72.1296 114.093 72.6972ZM107.03 94.6843C107.468 94.0404 107.97 93.4348 108.53 92.8753C108.13 93.6177 107.907 94.4152 107.03 94.6843ZM109.636 90.6991C109.352 90.4198 109.001 90.202 108.696 89.9374C108.183 91.0039 107.524 92.0064 107.016 93.0684C106.524 94.0984 106.363 95.1943 105.769 96.1931C105.431 96.7598 103.92 98.2402 104.353 98.698C104.853 99.2317 102.995 100.941 102.519 101.475C102.745 100.937 102.893 100.375 102.959 99.8021C102.45 100.371 101.977 100.966 101.543 101.584C101.32 101.889 101.088 102.19 100.843 102.483C100.367 102.25 99.9112 101.984 99.48 101.687C98.4402 100.978 97.6424 100.012 97.18 98.9031C96.28 96.6994 96.595 94.2339 96.273 91.9314C96.2358 91.0344 95.9356 90.163 95.4041 89.4087C94.8726 88.6544 94.1293 88.0449 93.252 87.644C91.495 86.7056 89.452 86.0693 87.928 84.8059C86.128 83.3007 86.955 81.7737 87.677 79.9683C88.3379 78.6383 88.4791 77.1407 88.077 75.7267C87.428 74.0284 85.499 72.8199 84.05 71.713C82.86 70.803 81.912 70.0761 81.61 68.6304C81.3635 67.3148 81.4435 65.9653 81.844 64.6818C82.119 63.7553 82.344 63.8688 83.364 63.813C84.454 63.7516 85.551 63.7214 86.644 63.6903C88.867 63.6399 91.091 63.6436 93.313 63.6793C92.9961 64.392 92.8525 65.1592 92.892 65.9278C92.892 66.2217 92.411 66.403 92.763 66.8516C92.9281 67.2289 92.9876 67.638 92.936 68.0418C92.771 68.1864 93.567 69.3913 93.716 69.307C93.548 69.4279 93.845 69.7474 94.033 69.6897C94.084 69.6751 93.868 69.2475 93.765 69.2814C93.478 69.4288 95.46 70.5512 95.445 70.5237C95.545 70.6885 95.609 70.6876 95.833 70.8808C95.8628 70.8284 95.8791 70.7706 95.8809 70.7116C95.8826 70.6526 95.8697 70.594 95.843 70.5402C96.346 70.8536 96.8047 71.2226 97.209 71.6389C97.148 71.6004 97.84 71.8705 97.788 72.0362C98.718 72.6725 98.804 72.8354 98.888 73.7125C98.878 73.6017 99.424 73.9798 99.394 73.8956C99.3396 73.7767 99.2948 73.6543 99.26 73.5294C99.525 73.9679 100.432 76.9361 100.047 76.9809C100.019 77.6703 99.696 78.5245 99.754 78.9639C100.141 79.0308 99.514 79.396 99.519 79.4748C99.528 79.5773 99.785 79.7495 99.79 79.8465C99.466 79.8465 99.478 79.8465 99.446 80.0598C99.721 79.9985 99.846 80.0598 99.831 80.2429C99.449 80.426 99.66 80.3217 99.414 80.2658C99.395 80.3857 99.347 80.5752 99.714 80.6824C99.394 80.6824 99.289 80.8087 99.4 81.0586C100.111 80.7767 100.38 82.0538 100.743 82.4713C101.49 83.2386 102.433 83.8248 103.488 84.1778C105.588 85.0018 108.168 85.5511 109.397 87.5003C108.907 87.0086 109.189 87.5332 109.184 87.611C109.165 87.5973 108.512 86.9848 108.512 86.9848C109.086 86.7102 108.591 86.8704 108.301 86.4712C108.082 86.1755 108.094 86.6131 107.922 86.5106C108.022 86.5692 108.129 86.1791 107.788 86.0015C107.724 86.1087 106.955 85.8532 106.97 85.9155C106.888 85.5246 106.879 85.4687 106.446 85.5236C106.48 85.4797 106.516 85.4321 106.546 85.39C106.597 85.4101 105.214 84.8004 105.423 85.1025C105.197 84.7729 105.088 84.8095 104.95 85.162C104.611 85.1364 104.85 84.7821 104.422 84.6585C104.38 84.8169 104.26 84.9011 104.203 85.0128C104.392 84.5147 104.003 84.75 103.764 84.4955C103.709 85.6042 104.179 84.4534 104.541 85.1794C104.76 85.6152 105.704 85.7177 105.926 85.2471C105.83 85.3854 105.746 85.5298 105.673 85.6793C105.981 85.8624 106.228 85.8459 106.402 85.5712C106.151 86.0482 106.802 86.2194 107.249 86.2194C107.381 86.2194 108.817 87.926 108.894 87.8838C108.922 87.8161 108.925 87.7416 108.901 87.6724C108.977 87.7162 109.041 87.7754 109.088 87.8453C109.135 87.9153 109.164 87.9942 109.172 88.076C109.181 88.1578 109.169 88.2403 109.137 88.3171C109.105 88.3939 109.055 88.4631 108.989 88.5192C109.089 88.5166 109.187 88.4934 109.276 88.4515C109.264 88.4899 109.203 89.7872 109.083 89.7387C109.212 89.6663 109.314 89.5587 109.373 89.4311C109.255 89.5905 109.158 89.762 109.083 89.9419C109.223 90.2606 109.842 88.7325 109.857 88.5046C109.936 88.7582 110.013 89.0539 110.335 89.1271C110.117 89.6535 109.887 90.1809 109.64 90.7018L109.636 90.6991ZM84.389 74.9906C84.254 74.9686 84.12 74.9457 83.989 74.9283L84.17 74.7672L84.389 74.9906ZM83.708 74.5603L83.815 74.3204C84.174 74.6015 83.957 74.617 83.712 74.563L83.708 74.5603ZM75.48 60.0172C75.498 59.9147 75.615 59.2555 75.615 59.998L75.48 60.0172ZM76.87 60.0529C76.8931 59.9497 76.929 59.8493 76.977 59.7536C76.952 59.7847 77.093 60.4567 76.944 60.5153C76.922 60.3642 76.898 60.2086 76.873 60.0548L76.87 60.0529ZM77.254 60.2562C77.315 59.9815 77.345 60.0209 77.346 60.3816C77.258 60.4338 77.23 60.3926 77.257 60.2608L77.254 60.2562ZM77.454 59.846C77.516 59.7993 77.579 59.7545 77.643 59.7096C77.491 59.8488 77.943 60.1976 77.624 60.2965C77.587 60.1555 77.693 59.8314 77.453 59.8479L77.454 59.846ZM79.572 64.5079C79.2747 64.4914 79.3227 64.3882 79.716 64.1984C79.668 64.3055 79.621 64.4053 79.571 64.5097L79.572 64.5079ZM79.102 66.631C78.958 66.5495 79.115 66.5577 79.102 66.631V66.631ZM79.002 67.3368C79.015 67.1336 79.021 67.3368 79.002 67.3368V67.3368ZM80.682 71.6681C80.863 71.7716 80.862 71.8302 80.675 71.8512C80.561 71.8091 80.565 71.7487 80.686 71.67L80.682 71.6681ZM81.154 72.1515C81.12 72.222 81.188 72.1827 81.154 72.1515V72.1515ZM85.145 75.9052C85.3 76.0636 85.307 76.1899 85.161 76.2869C84.973 76.1276 84.967 75.9995 85.149 75.9033L85.145 75.9052ZM96.523 70.9513C96.696 70.9897 96.742 71.0767 96.663 71.2058C96.475 71.1555 96.43 71.0712 96.53 70.9495L96.523 70.9513ZM95.598 70.3892L95.786 70.5128C95.43 70.5887 95.63 70.489 95.601 70.3873L95.598 70.3892ZM95.284 70.196C95.476 70.2427 95.491 70.2994 95.333 70.3635C95.243 70.326 95.225 70.2701 95.287 70.1932L95.284 70.196ZM109.73 88.2665C109.697 88.1915 109.666 88.1164 109.63 88.0395C109.87 88.0395 110.03 88.4442 109.736 88.4579C109.742 88.3941 109.74 88.3299 109.73 88.2665ZM109.61 87.9351C109.589 87.8655 109.571 87.796 109.553 87.7255C109.703 87.8491 109.722 87.9186 109.614 87.9351H109.61ZM21 60.9648C21.228 61.0774 21.37 60.974 21.025 61.2129C21.016 61.1296 21.009 61.0481 21 60.9648ZM21.681 59.5375C21.72 59.4459 21.947 58.795 21.834 59.5375H21.681ZM23.224 59.7114C23.2598 59.6102 23.311 59.514 23.376 59.4258C23.363 59.4341 23.419 60.1216 23.257 60.1637C23.246 60.0127 23.23 59.8616 23.224 59.7114ZM23.638 59.9412C23.599 60.2873 23.681 59.369 23.638 59.9412V59.9412ZM23.9 59.5357C23.971 59.4936 24.049 59.4496 24.125 59.4075C23.93 59.5411 24.388 59.8296 24.033 59.9266C24.011 59.7508 24.159 59.5283 23.9 59.5357ZM38.421 65.7237C38.5067 65.7282 38.5912 65.7439 38.672 65.7704C38.513 65.7704 38.498 65.8885 38.385 65.9407C38.3673 65.9052 38.3613 65.8658 38.3677 65.8272C38.3741 65.7887 38.3926 65.7527 38.421 65.7237ZM37.63 68.2258C37.587 68.1022 37.205 68.538 37.572 67.996C37.592 68.0692 37.61 68.1452 37.63 68.2258ZM34.63 79.5599C34.507 79.548 34.53 79.5032 34.63 79.5599V79.5599ZM33.282 82.0675C33.282 82.1115 33.257 82.1298 33.215 82.1207C33.2399 82.1038 33.263 82.0848 33.284 82.0639L33.282 82.0675ZM25.482 65.1121C25.731 65.3071 25.467 65.254 25.269 65.221C25.2746 65.2006 25.2845 65.1815 25.2983 65.1647C25.3121 65.1478 25.3295 65.1337 25.3493 65.1231C25.3692 65.1126 25.3912 65.1057 25.4139 65.103C25.4367 65.1003 25.4599 65.1019 25.482 65.1075V65.1121ZM21.223 73.8507C21.275 73.9844 21.323 73.815 21.223 73.8507C21.239 73.8398 21.23 73.8672 21.223 73.8462V73.8507ZM17.013 80.3665C17.699 80.3528 18.188 79.8172 18.855 79.7934L18.748 79.7183C19.209 79.5352 19.639 79.5114 20.035 79.3274C19.383 79.0253 20.735 78.7662 20.643 78.8211C20.8288 78.7471 21.0022 78.6494 21.158 78.5309C21.358 78.3386 20.898 78.2013 21.409 78.0118C21.346 77.9495 21.288 77.9413 21.236 77.9807C21.6724 77.5607 21.9171 77.0039 21.92 76.4243C21.895 76.1752 21.765 74.6015 21.48 74.5502C21.205 73.7766 21.13 73.6649 20.897 72.9444C20.5693 72.1117 20.5185 71.2089 20.751 70.3498C20.781 70.2583 21.179 69.2695 21.403 69.5039C21.437 69.4709 21.948 68.895 21.909 68.7128C22.4386 68.3167 23.0033 67.9615 23.597 67.6508C23.558 67.6179 23.328 67.5382 23.472 67.4394C23.612 67.3945 23.672 67.454 23.654 67.6133C24.014 67.3692 24.3783 67.1287 24.747 66.8919C24.604 66.8269 24.192 66.6648 24.354 66.49C25.043 66.9862 25.23 66.6136 25.666 65.9407C25.444 65.8564 25.224 65.7667 25.01 65.666C25.174 65.4151 25.532 65.8024 25.694 65.8949C25.926 65.5131 26.236 65.2449 25.822 65.0105C26.084 64.908 26.094 65.254 26.163 64.8484C25.613 64.7898 25.47 64.82 25.572 64.3678C25.712 64.6424 26.106 65.1332 26.216 64.5362C26.131 64.5417 26.046 64.5482 25.963 64.5527C25.84 64.4273 26.182 64.5225 26.216 64.5362C26.36 63.7883 27.576 64.1041 28.337 64.0593C29.218 64.0117 30.094 63.9329 30.969 63.8505C32.769 63.6812 34.575 63.6125 36.387 63.5905C36.496 66.1631 34.48 68.137 32.739 69.9323C31.971 70.7224 30.818 71.6224 30.778 72.765C30.729 74.1382 31.389 75.2863 31.772 76.5772C33.232 81.521 26.849 81.4807 25.186 85.1574C24.06 87.644 25.324 89.931 25.766 92.4084C26.0325 93.7676 25.9916 95.1625 25.6457 96.5067C25.2998 97.8509 24.6563 99.1158 23.755 100.223C23.084 101.039 22.123 102.787 21.082 101.824C19.905 100.737 18.772 99.6108 17.693 98.4416C18.377 97.9482 15.563 96.0009 15.393 95.7949C16.439 95.9926 15.563 95.2455 15.149 94.9599C15.021 94.9583 14.8951 94.9901 14.786 95.0515C14.479 94.666 14.186 94.2742 13.886 93.8805C14.02 93.8137 14.314 93.7441 14.186 93.5766C14.21 93.5546 14.494 93.3092 14.544 93.2662C14.694 93.5061 15.094 92.7544 15.001 92.4862C14.949 92.3351 14.674 92.7535 14.751 92.6629C14.8718 92.3577 14.9687 92.045 15.041 91.7272C15.63 92.0705 15.246 91.7272 15.441 91.2383C15.608 90.9087 15.175 91.101 15.206 90.9289C16.064 90.6323 15.271 90.4766 15.176 89.7552C15.549 89.4933 15.445 89.3313 15.176 89.0823C15.242 89.0823 15.31 89.0768 15.376 89.0759C15.389 89.1354 15.023 87.6174 14.876 87.9891C14.904 87.9132 14.988 87.2659 14.626 87.5808C14.567 87.3693 14.674 87.0672 14.598 86.8887C14.582 86.8887 14.507 86.9802 14.464 86.9958C13.844 84.4717 13.773 81.6482 17.013 80.3628V80.3665ZM27.573 98.3583C27.707 98.4316 27.838 98.5057 27.973 98.5762C27.594 98.4654 27.705 98.4654 27.458 98.3245C27.492 98.1633 27.53 98.1716 27.572 98.3547L27.573 98.3583ZM24.511 102.891C24.511 102.891 24.371 103.097 24.335 103.067L24.511 102.891ZM27.164 98.9607C27.264 99.034 27.364 99.1081 27.464 99.1823C27.305 99.1768 27.09 99.1182 27.163 98.9561L27.164 98.9607ZM17.458 98.1862C17.001 97.9665 16.934 97.7806 17.258 97.6305C17.33 97.8108 17.392 97.9976 17.458 98.1816V98.1862ZM13.935 93.1985C13.804 93.2177 13.911 93.1866 13.935 93.1985V93.1985ZM14.542 92.5146C14.528 92.6379 14.4854 92.7572 14.417 92.8643C14.4077 92.8532 14.3957 92.8443 14.382 92.8382C14.3683 92.832 14.3533 92.8288 14.338 92.8288C14.3228 92.8288 14.3077 92.832 14.294 92.8382C14.2804 92.8443 14.2684 92.8532 14.259 92.8643C14.354 92.7407 14.446 92.6244 14.542 92.51V92.5146ZM15.067 89.1125C15.06 89.096 15.167 89.0447 15.067 89.1125V89.1125ZM14.929 88.5925C14.913 88.5339 15.191 88.3544 14.929 88.5925V88.5925ZM13.721 93.3532C13.55 93.4932 13.731 93.3953 13.721 93.3532V93.3532ZM43.753 14.699C43.902 14.9141 43.762 14.699 43.894 14.655C43.83 14.8747 43.794 14.6779 43.752 14.6907L43.753 14.699ZM100.672 28.104L100.337 28.1745C100.422 27.8516 100.533 27.8254 100.671 28.0958L100.672 28.104ZM103.982 32.0224L103.027 32.3209C103.185 32.0105 103.338 31.6974 103.485 31.3779C103.653 31.5866 103.816 31.8 103.981 32.0142L103.982 32.0224ZM51.349 9.68375C50.5317 9.75962 49.7226 9.8971 48.93 10.0948C48.958 10.0005 48.9459 9.89999 48.8962 9.81352C48.8465 9.72706 48.7628 9.66105 48.662 9.6288C49.557 9.5757 50.453 9.68282 51.349 9.67275V9.68375ZM34.034 15.8177C34.253 15.8031 34.47 15.7875 34.689 15.7738C34.004 16.0951 34.504 15.847 34.03 15.8049L34.034 15.8177Z" fill="#FF4A4A"/>
<path d="M73.6465 88.0908C73.6565 87.8756 73.5545 86.7953 73.0125 87.2778C72.6532 86.5469 72.2178 85.8494 71.7125 85.195C71.7759 85.2567 71.86 85.2973 71.9515 85.3103C71.9385 85.1574 71.1925 84.5358 71.0615 84.3838C71.5365 83.9068 70.5945 83.3621 70.2095 83.2284C69.6275 83.0243 68.1005 80.4819 67.6705 81.0422C67.7705 80.9213 68.4095 81.9366 68.4095 81.9366C67.7037 81.5657 67.0216 81.1582 66.3665 80.7162C67.3325 80.1138 65.3085 79.6442 65.2065 79.5883C64.9058 79.3568 64.5184 79.2416 64.1265 79.267C63.7385 79.3247 62.6735 80.1431 62.8795 79.3283C62.8975 79.3347 61.4465 78.9365 61.4585 78.9713C61.6295 78.9411 61.6955 78.8431 61.6505 78.6755C61.0048 78.837 60.3252 78.8484 59.6735 78.7085C59.9716 78.5202 60.3275 78.424 60.6895 78.4339C60.4503 78.3578 60.2029 78.3056 59.9515 78.2782C59.3805 78.2974 59.4365 78.0576 58.8515 78.01C58.1675 77.9505 57.6065 78.7103 57.2235 78.9923C57.4835 78.7607 56.4235 78.6206 56.2345 78.7744C55.5935 79.2779 54.6395 78.4805 53.7795 78.8779C54.2245 78.7514 54.659 78.5956 55.0795 78.4119C54.9185 77.7142 53.3225 78.8257 53.0865 79.0207C52.176 79.5965 51.1392 79.9833 50.0485 80.1541C50.0275 79.9902 49.9655 79.559 49.6485 79.7137C49.8735 80.2017 49.4105 80.1715 49.3365 80.4462C49.3771 80.2162 49.4486 79.9917 49.5495 79.7778C49.2702 80.0356 49.0507 80.3425 48.9045 80.68C48.7582 81.0175 48.6882 81.3786 48.6985 81.7416C48.3165 81.1859 47.9875 82.2662 47.9135 82.4814C47.6275 83.3218 46.6695 83.7832 46.3815 84.6429C46.4205 84.4918 46.3815 84.4049 46.2555 84.3774C45.6145 84.8233 45.7855 86.5399 45.4555 87.1734C45.2555 87.5497 45.3825 87.7731 45.3095 88.1484C45.0935 88.1749 44.892 88.2627 44.7334 88.3995C44.5748 88.5363 44.4671 88.7152 44.4255 88.9111C44.354 89.2412 44.3632 89.5816 44.4525 89.9081C44.6105 90.5608 45.0835 90.6817 44.4525 90.9417C45.1126 91.7947 45.9003 92.5587 46.7925 93.2113C46.0925 93.4713 46.4775 93.7084 46.9855 93.7029C47.7565 93.6919 48.4285 94.0572 49.2215 93.9995C50.7164 94.475 52.2817 94.7395 53.8635 94.7841C56.9055 94.9324 59.9365 94.7164 62.9815 94.8995C65.4045 95.0441 68.2165 95.1567 70.4525 94.1405C71.6425 93.5994 71.8715 92.6885 72.7065 91.9149C73.8935 90.8254 73.5685 89.4485 73.6465 88.0908ZM65.9125 80.5414C65.5448 80.4081 65.1871 80.2531 64.8415 80.0772C65.2493 80.1024 65.6315 80.2679 65.9115 80.5405L65.9125 80.5414ZM64.5305 80.003C64.4485 79.9756 64.3665 79.9536 64.2865 79.928C64.4535 79.8639 64.5355 79.884 64.5295 80.003H64.5305ZM62.4745 79.4144C62.1905 79.4876 62.4535 79.4693 62.4745 79.4144C62.4615 79.44 62.4265 79.4263 62.4735 79.4144H62.4745ZM61.5355 79.0939C61.6575 79.1305 61.8985 79.0024 61.9995 79.3118C61.8625 79.2807 61.2985 79.007 61.5345 79.0939H61.5355ZM56.4635 79.2496C56.2715 79.3228 56.1835 79.2441 56.1955 79.0097C56.3077 79.065 56.4006 79.1481 56.4635 79.2496ZM54.6725 79.5242C54.3585 79.5911 54.5345 79.3851 54.6725 79.5242C54.6145 79.5352 54.6155 79.4693 54.6725 79.5242ZM45.0325 88.7023C45.091 88.8486 45.1126 89.0051 45.0955 89.1601C45.0725 89.0054 45.0515 88.8561 45.0325 88.7014V88.7023ZM45.0785 90.0619C45.1722 90.094 45.2494 90.1572 45.2948 90.2389C45.3401 90.3206 45.3504 90.4149 45.3235 90.5031C45.2415 90.5599 44.8045 90.1195 45.0815 90.061L45.0785 90.0619ZM46.9385 93.301C47.0484 93.3732 47.1637 93.4384 47.2835 93.496C47.1635 93.5464 46.2875 93.6022 46.9375 93.3001L46.9385 93.301Z" fill="#FF4A4A"/>
</svg>
