<svg width="25" height="25" viewBox="0 0 25 25" fill="none" xmlns="http://www.w3.org/2000/svg">
<path fill-rule="evenodd" clip-rule="evenodd" d="M2.5 12.5C2.50018 10.5756 3.05564 8.69206 4.09974 7.07548C5.14383 5.4589 6.6322 4.17793 8.38626 3.38627C10.1403 2.5946 12.0856 2.32588 13.9885 2.61234C15.8915 2.8988 17.6715 3.72828 19.1147 5.00124C20.558 6.2742 21.6033 7.93657 22.1252 9.78889C22.6471 11.6412 22.6235 13.6048 22.0571 15.444C21.4908 17.2832 20.4057 18.9199 18.9322 20.1577C17.4587 21.3956 15.6593 22.1819 13.75 22.4225V15H16.25C16.5815 15 16.8995 14.8683 17.1339 14.6339C17.3683 14.3995 17.5 14.0815 17.5 13.75C17.5 13.4185 17.3683 13.1005 17.1339 12.8661C16.8995 12.6317 16.5815 12.5 16.25 12.5H13.75V10C13.75 9.66848 13.8817 9.35054 14.1161 9.11612C14.3505 8.8817 14.6685 8.75 15 8.75H15.625C15.9565 8.75 16.2745 8.6183 16.5089 8.38388C16.7433 8.14946 16.875 7.83152 16.875 7.5C16.875 7.16848 16.7433 6.85054 16.5089 6.61612C16.2745 6.3817 15.9565 6.25 15.625 6.25H15C14.0054 6.25 13.0516 6.64509 12.3483 7.34835C11.6451 8.05161 11.25 9.00544 11.25 10V12.5H8.75C8.41848 12.5 8.10054 12.6317 7.86612 12.8661C7.6317 13.1005 7.5 13.4185 7.5 13.75C7.5 14.0815 7.6317 14.3995 7.86612 14.6339C8.10054 14.8683 8.41848 15 8.75 15H11.25V22.4225C8.83337 22.1178 6.61102 20.9416 5 19.1147C3.38898 17.2878 2.50004 14.9358 2.5 12.5ZM12.5 25C19.4037 25 25 19.4037 25 12.5C25 5.59625 19.4037 0 12.5 0C5.59625 0 0 5.59625 0 12.5C0 19.4037 5.59625 25 12.5 25Z" fill="#4285F4"/>
</svg>
