<svg width="284" height="177" viewBox="0 0 284 177" fill="none" xmlns="http://www.w3.org/2000/svg">
<g style="mix-blend-mode:multiply" opacity="0.4">
<path d="M111.891 173.663C138.133 173.663 159.407 154.186 159.407 130.161C159.407 106.136 138.133 86.6592 111.891 86.6592C85.6486 86.6592 64.375 106.136 64.375 130.161C64.375 154.186 85.6486 173.663 111.891 173.663Z" fill="white"/>
<path d="M113.117 172.803C139.36 172.659 160.506 153.066 160.348 129.04C160.191 105.015 138.79 85.6552 112.547 85.7994C86.3049 85.9435 65.1589 105.537 65.3163 129.562C65.4738 153.588 86.8751 172.947 113.117 172.803Z" fill="#FAFDF7"/>
<path d="M114.294 171.969C140.534 171.688 161.558 151.985 161.251 127.961C160.944 103.938 139.423 84.6903 113.183 84.9713C86.9421 85.2522 65.9187 104.955 66.2255 128.979C66.5324 153.003 88.0534 172.25 114.294 171.969Z" fill="#F5FCEF"/>
<path d="M115.517 171.142C141.759 170.709 162.65 150.882 162.177 126.857C161.705 102.831 140.048 83.7053 113.806 84.1378C87.5637 84.5702 66.673 104.397 67.1453 128.423C67.6177 152.448 89.2743 171.574 115.517 171.142Z" fill="#EFFAE7"/>
<path d="M116.779 170.267C143.013 169.663 163.745 149.704 163.086 125.686C162.426 101.668 140.625 82.6871 114.391 83.2908C88.1566 83.8946 67.4243 103.854 68.0837 127.872C68.7432 151.89 90.5447 170.871 116.779 170.267Z" fill="#EAF8DF"/>
<path d="M118.058 169.413C144.286 168.629 164.855 148.528 163.999 124.515C163.143 100.503 141.187 81.6718 114.958 82.4553C88.7301 83.2389 68.1616 103.34 69.0175 127.353C69.8734 151.366 91.8295 170.196 118.058 169.413Z" fill="#E5F6D7"/>
<path d="M119.386 168.527C145.602 167.542 165.983 147.286 164.907 123.285C163.831 99.2835 141.706 80.625 115.49 81.6101C89.2738 82.5951 68.8937 102.851 69.9696 126.852C71.0456 150.853 93.1702 169.512 119.386 168.527Z" fill="#E0F5D0"/>
<path d="M120.673 167.73C146.889 166.553 167.099 146.142 165.813 122.14C164.527 98.1389 142.232 79.6362 116.016 80.8135C89.8002 81.9907 69.5903 102.402 70.8761 126.403C72.162 150.405 94.4568 168.907 120.673 167.73Z" fill="#DAF3C8"/>
<path d="M122.081 166.824C148.277 165.407 168.26 144.817 166.713 120.833C165.167 96.8496 142.676 78.555 116.479 79.971C90.2826 81.3871 70.2998 101.978 71.8465 125.961C73.3933 149.945 95.8838 168.24 122.081 166.824Z" fill="#D5F1C0"/>
<path d="M123.494 165.949C149.673 164.285 169.422 143.507 167.605 119.539C165.788 95.5713 143.092 77.4904 116.913 79.1542C90.7333 80.818 70.984 101.596 72.8013 125.564C74.6186 149.532 97.3144 167.613 123.494 165.949Z" fill="#D0EFB8"/>
<path d="M124.951 165.066C151.108 163.132 170.6 142.151 168.488 118.204C166.375 94.2563 143.458 76.4108 117.301 78.3447C91.1441 80.2786 71.6519 101.26 73.7642 125.207C75.8766 149.155 98.7936 167 124.951 165.066Z" fill="#CBEEB0"/>
<path d="M126.46 164.174C152.589 161.945 171.797 140.745 169.362 116.823C166.927 92.9015 143.771 75.3162 117.642 77.5455C91.5129 79.7747 72.305 100.974 74.74 124.896C77.1749 148.818 100.331 166.403 126.46 164.174Z" fill="#C6ECA8"/>
<path d="M127.983 163.252C154.068 160.705 172.959 139.281 170.177 115.4C167.396 91.5187 143.995 74.2236 117.91 76.7703C91.8247 79.317 72.9337 100.741 75.7154 124.622C78.4971 148.504 101.898 165.799 127.983 163.252Z" fill="#C0EAA0"/>
<path d="M129.661 162.384C155.719 159.477 174.27 137.78 171.095 113.923C167.919 90.0658 144.221 73.0823 118.162 75.9894C92.1032 78.8965 73.5526 100.593 76.728 124.45C79.9033 148.308 103.602 165.291 129.661 162.384Z" fill="#BBE898"/>
<path d="M131.346 161.414C157.34 158.114 175.49 136.147 171.886 112.35C168.282 88.552 144.288 71.935 118.294 75.2347C92.3006 78.5343 74.1503 100.501 77.7544 124.299C81.3585 148.097 105.352 164.714 131.346 161.414Z" fill="#B6E790"/>
<path d="M133.126 160.452C159.05 156.719 176.76 134.454 172.684 110.72C168.607 86.9863 144.287 70.772 118.363 74.5043C92.4392 78.2366 74.7287 100.502 78.8054 124.236C82.8821 147.97 107.202 164.184 133.126 160.452Z" fill="#B1E588"/>
<path d="M134.997 159.461C160.833 155.25 178.049 132.661 173.449 109.007C168.849 85.3539 144.176 69.5929 118.34 73.804C92.5039 78.0152 75.2884 100.604 79.8882 124.257C84.488 147.911 109.161 163.672 134.997 159.461Z" fill="#ABE381"/>
<path d="M136.969 158.433C162.695 153.692 179.352 130.755 174.173 107.202C168.994 83.649 143.941 68.3992 118.214 73.1406C92.4881 77.882 75.8312 100.819 81.0101 124.372C86.189 147.925 111.243 163.175 136.969 158.433Z" fill="#A6E179"/>
<path d="M139.068 157.345C164.654 152.012 180.673 128.699 174.847 105.274C169.022 81.8489 143.557 67.1832 117.971 72.5168C92.3844 77.8505 76.3653 101.164 82.1911 124.589C88.0169 148.013 113.481 162.679 139.068 157.345Z" fill="#A1E071"/>
<path d="M141.269 156.228C166.685 150.246 181.992 126.534 175.459 103.265C168.925 79.996 143.025 65.982 117.609 71.9638C92.1926 77.9456 76.8855 101.658 83.4193 124.927C89.953 148.196 115.853 162.21 141.269 156.228Z" fill="#9CDE69"/>
<path d="M143.619 155.025C168.82 148.322 183.313 124.184 175.991 101.113C168.669 78.0417 142.305 64.7728 117.105 71.4761C91.9044 78.1794 77.4111 102.316 84.7329 125.388C92.0547 148.459 118.419 161.728 143.619 155.025Z" fill="#96DC61"/>
<path d="M146.117 153.733C171.048 146.234 184.619 121.652 176.429 98.8265C168.238 76.0013 141.387 63.5768 116.456 71.0756C91.5243 78.5744 77.9534 103.157 86.1441 125.982C94.3349 148.807 121.186 161.232 146.117 153.733Z" fill="#91DA59"/>
<path d="M148.712 152.32C173.301 143.959 185.831 118.932 176.699 96.4199C167.566 73.9081 140.23 62.4365 115.641 70.7973C91.0516 79.1582 78.5214 104.185 87.6537 126.697C96.7861 149.209 124.123 160.681 148.712 152.32Z" fill="#8CD951"/>
<path d="M151.596 150.815C175.792 141.493 187.152 115.979 176.97 93.8273C166.788 71.6759 138.919 61.2754 114.724 70.5973C90.5284 79.9192 79.1682 105.433 89.3503 127.585C99.5323 149.736 127.401 160.137 151.596 150.815Z" fill="#87D749"/>
<path d="M154.471 149.15C178.168 138.827 188.238 112.872 176.963 91.1772C165.688 69.4823 137.338 60.2631 113.641 70.5855C89.9444 80.9079 79.8745 106.863 91.1494 128.558C102.424 150.253 130.774 159.472 154.471 149.15Z" fill="#82D541"/>
<path d="M157.492 147.333C180.602 135.951 189.259 109.572 176.827 88.4134C164.394 67.2552 135.581 59.33 112.47 70.7121C89.3598 82.0941 80.7034 108.473 93.1357 129.631C105.568 150.79 134.381 158.715 157.492 147.333Z" fill="#7CD339"/>
<path d="M169.504 138.937C188.06 121.949 188.06 94.4048 169.504 77.4162C150.948 60.4277 120.862 60.4277 102.306 77.4162C83.7498 94.4048 83.7498 121.949 102.306 138.937C120.862 155.926 150.948 155.926 169.504 138.937Z" fill="#77D232"/>
<path d="M170.427 138.092C188.983 121.104 188.983 93.56 170.427 76.5714C151.87 59.5829 121.785 59.5829 103.229 76.5714C84.6726 93.56 84.6726 121.104 103.229 138.092C121.785 155.081 151.87 155.081 170.427 138.092Z" fill="#72D02A"/>
<path d="M171.35 137.246C189.907 120.258 189.907 92.7137 171.35 75.7252C152.794 58.7367 122.709 58.7367 104.153 75.7252C85.5964 92.7137 85.5964 120.258 104.153 137.246C122.709 154.235 152.794 154.235 171.35 137.246Z" fill="#6DCE22"/>
<path d="M172.273 136.4C190.829 119.412 190.829 91.8678 172.273 74.8792C153.717 57.8907 123.632 57.8907 105.075 74.8792C86.5193 91.8678 86.5193 119.412 105.075 136.4C123.632 153.389 153.717 153.389 172.273 136.4Z" fill="#67CC1A"/>
<path d="M173.197 135.555C191.753 118.567 191.753 91.0229 173.197 74.0344C154.641 57.0459 124.555 57.0459 105.999 74.0344C87.4431 91.0229 87.4431 118.567 105.999 135.555C124.555 152.544 154.641 152.544 173.197 135.555Z" fill="#62CB12"/>
<path d="M174.122 134.709C192.678 117.721 192.678 90.177 174.122 73.1885C155.566 56.1999 125.48 56.1999 106.924 73.1885C88.3679 90.177 88.3679 117.721 106.924 134.709C125.48 151.698 155.566 151.698 174.122 134.709Z" fill="#5DC90A"/>
</g>
<path d="M174.122 134.709C192.678 117.721 192.678 90.177 174.122 73.1885C155.566 56.1999 125.48 56.1999 106.924 73.1885C88.3679 90.177 88.3679 117.721 106.924 134.709C125.48 151.698 155.566 151.698 174.122 134.709Z" fill="#5DC90A"/>
<path d="M140.523 148.367C130.927 148.367 121.547 145.762 113.568 140.882C105.589 136.001 99.3706 129.064 95.6983 120.948C92.0261 112.831 91.0651 103.9 92.937 95.2838C94.8089 86.6674 99.4297 78.7527 106.215 72.5406C113 66.3285 121.645 62.098 131.056 60.384C140.468 58.6701 150.223 59.5497 159.088 62.9115C167.954 66.2734 175.531 71.9666 180.862 79.2712C186.193 86.5758 189.039 95.1637 189.039 103.949C189.024 115.725 183.908 127.015 174.813 135.342C165.718 143.669 153.386 148.354 140.523 148.367ZM140.523 61.3624C131.323 61.3623 122.329 63.8598 114.679 68.5393C107.029 73.2188 101.067 79.87 97.546 87.6518C94.0251 95.4337 93.1038 103.997 94.8987 112.258C96.6935 120.519 101.124 128.107 107.629 134.063C114.135 140.019 122.424 144.076 131.447 145.719C140.471 147.362 149.824 146.519 158.324 143.295C166.824 140.072 174.089 134.613 179.2 127.609C184.311 120.606 187.039 112.372 187.039 103.949C187.025 92.6581 182.12 81.8336 173.399 73.8499C164.679 65.8662 152.855 61.3753 140.523 61.3624Z" fill="white"/>
<path d="M135.65 152.599C124.617 152.564 113.927 149.085 105.346 142.737C96.7645 136.389 90.8044 127.551 88.4498 117.683C88.4082 117.505 88.4455 117.319 88.5536 117.166C88.6617 117.014 88.8318 116.906 89.0263 116.868C89.2208 116.83 89.4239 116.864 89.5909 116.963C89.7579 117.062 89.8752 117.218 89.9168 117.396C91.2972 123.257 94.0052 128.788 97.8659 133.631C101.727 138.474 106.654 142.521 112.33 145.512C118.006 148.503 124.304 150.371 130.818 150.994C137.331 151.617 143.915 150.983 150.144 149.131C150.238 149.102 150.337 149.091 150.436 149.097C150.535 149.103 150.632 149.127 150.72 149.168C150.809 149.209 150.888 149.265 150.953 149.334C151.018 149.403 151.067 149.483 151.098 149.569C151.128 149.655 151.14 149.746 151.132 149.837C151.124 149.927 151.097 150.016 151.051 150.096C151.006 150.177 150.943 150.249 150.867 150.307C150.791 150.366 150.703 150.41 150.609 150.437C145.778 151.874 140.729 152.604 135.65 152.599ZM167.464 141.41C167.312 141.41 167.165 141.367 167.04 141.288C166.915 141.21 166.82 141.098 166.766 140.969C166.711 140.839 166.701 140.698 166.737 140.563C166.772 140.428 166.851 140.306 166.964 140.213C171.824 136.196 175.711 131.29 178.373 125.812C181.035 120.334 182.413 114.406 182.419 108.411V108.235C182.417 108.053 182.495 107.878 182.635 107.748C182.775 107.618 182.965 107.545 183.164 107.543C183.362 107.543 183.552 107.615 183.692 107.743C183.833 107.87 183.912 108.044 183.914 108.225V108.408C183.908 114.596 182.486 120.714 179.738 126.367C176.991 132.02 172.98 137.084 167.964 141.231C167.827 141.345 167.649 141.409 167.464 141.41ZM88.1328 109.142C88.0371 109.147 87.9413 109.135 87.8511 109.105C87.761 109.075 87.6784 109.029 87.6083 108.969C87.5382 108.909 87.4821 108.837 87.4434 108.756C87.4046 108.676 87.384 108.589 87.3828 108.502V108.41C87.3891 102.238 88.8045 96.1358 91.5382 90.4941C94.2718 84.8525 98.2634 79.7963 103.257 75.65C103.329 75.5866 103.415 75.5371 103.508 75.5044C103.602 75.4718 103.702 75.4567 103.802 75.4599C103.902 75.4632 104 75.4848 104.091 75.5235C104.182 75.5621 104.264 75.617 104.331 75.685C104.398 75.753 104.45 75.8326 104.483 75.9192C104.516 76.0057 104.53 76.0975 104.524 76.189C104.518 76.2806 104.491 76.3701 104.447 76.4522C104.402 76.5343 104.34 76.6074 104.264 76.6671C99.4251 80.6848 95.5573 85.5841 92.9083 91.0507C90.2594 96.5173 88.8879 102.431 88.8818 108.411C88.8834 108.598 88.8066 108.778 88.6671 108.914C88.5277 109.05 88.3364 109.132 88.1328 109.142ZM182.096 99.8811C181.925 99.8806 181.759 99.8267 181.626 99.7281C181.492 99.6295 181.4 99.4923 181.364 99.3391C179.971 93.4804 177.25 87.9544 173.379 83.1184C169.507 78.2823 164.57 74.2437 158.887 71.2636C153.204 68.2835 146.902 66.4281 140.386 65.8173C133.871 65.2066 127.289 65.854 121.064 67.7179C120.97 67.7473 120.87 67.7594 120.771 67.7534C120.672 67.7474 120.576 67.7235 120.487 67.683C120.398 67.6425 120.319 67.5862 120.254 67.5175C120.189 67.4487 120.139 67.3689 120.108 67.2825C120.077 67.1962 120.065 67.105 120.073 67.0144C120.081 66.9238 120.108 66.8355 120.154 66.7547C120.199 66.6738 120.261 66.602 120.337 66.5434C120.413 66.4848 120.501 66.4406 120.596 66.4133C127.02 64.4896 133.814 63.8213 140.538 64.4516C147.262 65.0819 153.767 66.9969 159.632 70.0726C165.497 73.1484 170.592 77.3166 174.587 82.3078C178.583 87.299 181.39 93.0022 182.828 99.0489C182.849 99.137 182.85 99.228 182.833 99.3167C182.815 99.4055 182.779 99.4902 182.726 99.566C182.672 99.6419 182.603 99.7073 182.522 99.7587C182.441 99.8101 182.35 99.8464 182.254 99.8655C182.202 99.8755 182.149 99.8807 182.096 99.8811Z" fill="black"/>
<path d="M130.601 127.458L110.356 108.923L117.639 102.255L130.6 114.121L163.337 84.1498L170.62 90.8175L130.601 127.458Z" fill="white"/>
<path d="M130.602 129.038L108.631 108.923L117.641 100.674L130.602 112.539L163.339 82.5686L172.349 90.8175L130.602 129.038ZM112.084 108.923L130.602 125.876L168.895 90.8175L163.339 85.7299L130.602 115.701L117.641 103.835L112.084 108.923Z" fill="white"/>
<path d="M53.4747 133.859C51.6307 127.877 43.1387 128.457 43.1387 128.457L43.3717 132.617C48.2807 131.843 51.3317 137.109 51.3317 137.109L53.4747 133.859Z" fill="#E0E0E0"/>
<path d="M178.166 64.7947C188.016 67.5266 194.144 57.1263 194.144 57.1263L188.152 53.9998C185.222 60.3709 175.384 59.6339 175.384 59.6339L178.166 64.7947Z" fill="#E0E0E0"/>
<path d="M259.932 120.629C258.026 115.656 250.874 116.557 250.874 116.557L251.311 120.067C255.42 119.173 258.306 123.483 258.306 123.483L259.932 120.629Z" fill="#E0E0E0"/>
<path d="M146.956 4.1352C145.05 -0.837913 137.897 0.0638764 137.897 0.0638764L138.335 3.57306C142.444 2.67951 145.329 6.98978 145.329 6.98978L146.956 4.1352Z" fill="#E0E0E0"/>
<path d="M61.6117 67.772C59.7057 62.7988 52.5537 63.6997 52.5537 63.6997L52.9907 67.2089C57.0997 66.3163 59.9847 70.6256 59.9847 70.6256L61.6117 67.772Z" fill="#EBEBEB"/>
<path d="M43.6796 21.2799C37.9996 22.1323 37.7256 28.7377 37.7256 28.7377L41.5756 28.9538C41.3296 25.094 46.4676 23.2419 46.4676 23.2419L43.6796 21.2799Z" fill="#EBEBEB"/>
<path d="M2.78198 175.988C12.632 178.72 18.761 168.32 18.761 168.32L12.768 165.194C9.83797 171.565 0 170.828 0 170.828L2.78198 175.988Z" fill="#EBEBEB"/>
<path d="M283.391 65.3734C284.057 61.1977 278.617 59.4043 278.617 59.4043L277.503 62.0428C280.781 62.8063 281.079 66.8447 281.079 66.8447L283.391 65.3734Z" fill="#E0E0E0"/>
<path d="M250.644 19.5086C246.803 21.8423 248.977 26.7476 248.977 26.7476L251.865 25.7405C250.299 22.994 253.384 20.0973 253.384 20.0973L250.644 19.5086Z" fill="#EBEBEB"/>
<path d="M215.777 144.279C213.932 138.297 205.44 138.878 205.44 138.878L205.674 143.039C210.583 142.263 213.634 147.53 213.634 147.53L215.777 144.279Z" fill="#28B0E8"/>
<path d="M132.227 74.6825C127.643 75.1275 127.095 80.3972 127.095 80.3972L130.163 80.7304C130.158 77.6342 134.357 76.368 134.357 76.368L132.227 74.6825Z" fill="#28B0E8"/>
<path d="M174.91 18.8614C177.71 25.3845 187.163 23.8675 187.163 23.8675L186.395 19.224C180.983 20.5972 176.92 14.9961 176.92 14.9961L174.91 18.8614Z" fill="#28B0E8"/>
<path d="M68.2756 129.056C63.6916 129.502 63.1436 134.771 63.1436 134.771L66.2115 135.105C66.2115 132.008 70.4055 130.742 70.4055 130.742L68.2756 129.056Z" fill="#28B0E8"/>
<path d="M87.1624 39.7096C87.8284 35.5339 82.3884 33.7404 82.3884 33.7404L81.2744 36.3789C84.5524 37.1425 84.8504 41.1809 84.8504 41.1809L87.1624 39.7096Z" fill="#28B0E8"/>
<path d="M8.79298 103.802C7.96898 110.349 17.444 111.935 17.444 111.935L19.153 107.65C13.469 107.18 12.648 101.05 12.648 101.05L8.79298 103.802Z" fill="#28B0E8"/>
<path d="M233.97 72.2031C238.57 72.4438 240.045 67.3252 240.045 67.3252L237.077 66.5406C236.533 69.5975 232.165 70.2237 232.165 70.2237L233.97 72.2031Z" fill="#28B0E8"/>
</svg>
