<svg width="25" height="25" viewBox="0 0 25 25" fill="none" xmlns="http://www.w3.org/2000/svg">
<path d="M17.1525 17.083L17.737 16.4708L16.3795 15.0329L15.7975 15.6451L17.1525 17.083ZM19.6971 16.214L22.1469 17.6181L23.0634 15.837L20.615 14.4342L19.6971 16.214ZM22.6173 20.4074L20.797 22.3169L22.152 23.7534L23.9723 21.8452L22.6173 20.4074ZM19.6868 22.9304C17.828 23.1142 13.0208 22.9507 7.81359 17.4938L6.45731 18.9303C12.1388 24.8859 17.5473 25.1778 19.8663 24.9494L19.6868 22.9304ZM7.81359 17.4938C2.85124 12.2909 2.02824 7.9165 1.92568 6.0178L0.00534994 6.13267C0.133543 8.52192 1.15268 13.3707 6.45731 18.9303L7.81359 17.4938ZM9.57625 9.14221L9.94416 8.75571L8.59044 7.31918L8.22253 7.70433L9.57625 9.14221ZM10.2364 3.84342L8.62121 1.56768L7.08161 2.78393L8.69684 5.05831L10.2364 3.84342ZM3.18454 1.07172L1.17191 3.17989L2.52819 4.61776L4.53954 2.5096L3.18454 1.07172ZM8.89939 8.42327C8.21996 7.70433 8.21996 7.70433 8.21996 7.70703H8.2174L8.21355 7.71244C8.15303 7.77756 8.09851 7.8486 8.05075 7.92461C7.98152 8.03272 7.90589 8.17461 7.84179 8.35435C7.68569 8.8183 7.64682 9.31709 7.72898 9.80168C7.90076 10.9706 8.66479 12.5153 10.621 14.5667L11.9773 13.1288C10.1454 11.2098 9.70957 10.0422 9.62881 9.49086C9.59035 9.22869 9.63009 9.09896 9.64163 9.06923C9.64804 9.05031 9.6506 9.04896 9.64163 9.06112C9.63032 9.07986 9.61745 9.0975 9.60317 9.11383L9.59035 9.12734C9.5862 9.13154 9.58193 9.1356 9.57753 9.1395L8.89939 8.42327ZM10.621 14.5667C12.5785 16.6181 14.0515 17.4181 15.1616 17.5965C15.7295 17.6884 16.1872 17.6154 16.5346 17.4789C16.7288 17.4031 16.9105 17.2955 17.073 17.16C17.095 17.1405 17.1164 17.1203 17.1371 17.0992L17.146 17.0911L17.1499 17.087L17.1512 17.0843C17.1512 17.0843 17.1525 17.083 16.4743 16.364C15.7949 15.6451 15.7987 15.6437 15.7987 15.6437L15.8013 15.641L15.8039 15.6383L15.8116 15.6316L15.8244 15.618C15.8398 15.6035 15.8561 15.5899 15.8731 15.5775C15.8859 15.568 15.8821 15.5721 15.8641 15.5802C15.8321 15.5924 15.7064 15.6343 15.4539 15.5937C14.9232 15.5072 13.8079 15.0478 11.9773 13.1288L10.621 14.5667ZM8.62121 1.56633C7.31364 -0.271554 4.74465 -0.563453 3.18454 1.07172L4.53954 2.5096C5.22153 1.79472 6.43167 1.86904 7.08161 2.78393L8.62121 1.56633ZM1.92696 6.01915C1.90133 5.55157 2.10515 5.06237 2.52819 4.61911L1.17063 3.18124C0.482228 3.90288 -0.0600285 4.92453 0.00534994 6.13267L1.92696 6.01915ZM20.797 22.3169C20.4457 22.6872 20.0663 22.8953 19.6881 22.9318L19.8663 24.9494C20.8085 24.8561 21.579 24.3561 22.1533 23.7547L20.797 22.3169ZM9.94416 8.75571C11.2069 7.4327 11.3004 5.34211 10.2377 3.84477L8.69812 5.05967C9.21474 5.78806 9.13783 6.74349 8.58916 7.32054L9.94416 8.75571ZM22.1481 17.6195C23.1955 18.2195 23.3583 19.633 22.6186 20.4087L23.9749 21.8452C25.6927 20.0438 25.1632 17.0397 23.0647 15.8383L22.1481 17.6195ZM17.737 16.4721C18.2293 15.9559 19.0215 15.8289 19.6984 16.2154L20.6162 14.4356C19.2266 13.6383 17.5037 13.8585 16.3807 15.0343L17.737 16.4721Z" fill="#29A814"/>
</svg>
